<?xml version="1.0" encoding="utf-8"?>
<!-- Generator: Adobe Illustrator 21.0.2, SVG Export Plug-In . SVG Version: 6.00 Build 0)  -->
<svg version="1.1" id="Capa_1" xmlns="http://www.w3.org/2000/svg" xmlns:xlink="http://www.w3.org/1999/xlink" x="0px" y="0px"
	 viewBox="0 0 128 168" style="enable-background:new 0 0 128 168;" xml:space="preserve">
<style type="text/css">
	.st0{fill:none;}
	.st1{opacity:0.54;enable-background:new    ;}
</style>
<title>TEST.</title>
<path d="M64.1,1.7c3.4,0.6,7,0.9,10.3,1.7c16.7,4.1,28.5,14.7,37.8,28.7c7.1,10.4,10.5,22.8,9.8,35.4c-0.6,11.2-5.4,21.1-10.6,30.8
	c-8.6,15.9-19.5,30.2-30.6,44.4c-5.7,7.2-11.3,14.5-17,21.7c-1.7,2.1-2.2,2.1-3.8,0.1C42.4,141.9,26,118.3,11,94
	C4.7,83.6,1.1,72.5,1.7,60.3c0.6-13,6-24,14-33.9C25.4,14.5,37.2,5.9,52.5,2.9c2.5-0.5,5.1-0.8,7.7-1.2H64.1z M65.2,21.8
	c-11.6-0.1-19.1,1.8-25.7,6.4c-17.2,12-22,38.2-10.4,56.4c7.1,11.1,17.5,16.2,30.4,16.7c16.3,0.6,29.8-6.8,36.4-21.8
	c3.3-7.7,4.5-16.1,3.3-24.4C96.6,35,81.8,21.8,65.2,21.8z"/>
<path class="st0" d="M65.2,21.8c16.7,0,31.4,13.1,34,33.4c1.2,8.3,0.1,16.7-3.3,24.4c-6.7,15-20.1,22.4-36.4,21.8
	c-12.9-0.5-23.3-5.6-30.4-16.7c-11.7-18.2-6.9-44.4,10.4-56.4C46.1,23.6,53.6,21.7,65.2,21.8z M78.5,42.8l-0.7-0.6
	c-1.4,0.5-2.7,1.2-3.9,1.9c-11.9,8.2-21.5,19.2-28.2,32c-0.5,1.1-0.9,2.3-1.2,3.4l0.7,0.5c1.3-0.7,2.6-1.6,3.8-2.6
	C54.6,72,60.4,66.7,65.7,61c3.9-4.5,7.6-9.2,11.1-14.1C77.4,45.7,78,44.3,78.5,42.8L78.5,42.8z M64,41.6
	c-6.7,0.1-24.5,17.9-24.5,24.5C49.4,59.2,57.8,51.6,64,41.6z M84,58.8c-6.5-0.2-24.8,18.3-24.3,24.5C69.3,76.3,77.8,68.7,84,58.8
	L84,58.8z"/>
<path d="M78.5,42.8c-0.4,1.4-1,2.8-1.8,4.1c-3.5,4.9-7.2,9.6-11.1,14.1c-5.3,5.8-11.1,11.1-16.7,16.5c-1.2,1-2.4,1.8-3.8,2.6
	l-0.7-0.5c0.3-1.2,0.7-2.3,1.2-3.4c6.7-12.8,16.4-23.8,28.2-32c1.3-0.7,2.6-1.4,3.9-1.9L78.5,42.8z"/>
<path d="M64,41.6c-6.2,9.9-14.7,17.6-24.5,24.5C39.6,59.5,57.4,41.7,64,41.6z"/>
<path d="M84,58.8c-6.2,9.9-14.7,17.5-24.4,24.5C59.2,77.1,77.5,58.7,84,58.8z"/>
<path class="st1" d="M68.1,2c3.4,0.6,7,0.9,10.3,1.7c16.7,4.1,28.5,14.7,37.8,28.7c7.1,10.4,10.5,22.8,9.8,35.4
	c-0.6,11.2-5.4,21.1-10.6,30.8c-8.6,15.9-19.5,30.2-30.6,44.4c-5.7,7.2-11.3,14.5-17,21.7c-1.7,2.1-2.2,2.1-3.8,0.1
	c-17.6-22.6-34-46.1-49-70.4C8.7,83.9,5.1,72.9,5.7,60.7c0.6-13,6-24,14-33.9c9.7-12,21.5-20.5,36.8-23.6C59,2.7,61.6,2.4,64.2,2
	H68.1z M69.2,22.1c-11.6-0.1-19.1,1.8-25.7,6.4c-17.2,12-22,38.2-10.4,56.4c7.1,11.1,17.5,16.2,30.4,16.7
	c16.3,0.6,29.8-6.8,36.4-21.8c3.3-7.7,4.5-16.1,3.3-24.4C100.6,35.3,85.8,22.1,69.2,22.1z"/>
</svg>
